<svg viewBox="0 0 142 43" fill="none" xmlns="http://www.w3.org/2000/svg" role="img" width="142" height="43" aria-hidden="false" aria-label="Cisco U. Spotlight">
    <path d="M11.664 31.164C14.064 31.164 15.9 30.624 17.172 29.544C18.228 28.68 18.756 27.552 18.756 26.16C18.756 25.176 18.552 24.384 18.144 23.784C17.664 23.112 16.824 22.512 15.624 21.984C14.424 21.432 12.66 20.868 10.332 20.292C7.236 19.524 5.088 18.504 3.888 17.232C2.88 16.176 2.376 14.784 2.376 13.056C2.376 10.992 3.264 9.36 5.04 8.16C6.672 7.08 8.82 6.54 11.484 6.54C14.364 6.54 16.728 7.212 18.576 8.556C20.184 9.756 21.168 11.328 21.528 13.272H18.612C18.324 11.808 17.496 10.692 16.128 9.924C14.928 9.252 13.392 8.916 11.52 8.916C9.288 8.916 7.632 9.348 6.552 10.212C5.664 10.908 5.22 11.808 5.22 12.912C5.22 14.256 5.736 15.288 6.768 16.008C7.776 16.704 9.624 17.388 12.312 18.06C16.008 18.996 18.528 20.136 19.872 21.48C21.024 22.608 21.6 24.132 21.6 26.052C21.6 28.332 20.628 30.18 18.684 31.596C16.884 32.892 14.556 33.54 11.7 33.54C8.748 33.54 6.324 32.784 4.428 31.272C2.772 29.952 1.764 28.212 1.404 26.052H4.32C4.608 27.78 5.484 29.1 6.948 30.012C8.196 30.78 9.768 31.164 11.664 31.164ZM25.3229 14.28H27.5189L27.9149 17.268C28.6349 16.116 29.5709 15.228 30.7229 14.604C31.8269 14.028 33.0629 13.74 34.4309 13.74C37.0469 13.74 39.0749 14.676 40.5149 16.548C41.8349 18.276 42.4949 20.58 42.4949 23.46C42.4949 26.868 41.6069 29.472 39.8309 31.272C38.3429 32.784 36.4589 33.54 34.1789 33.54C32.8349 33.54 31.6229 33.252 30.5429 32.676C29.4629 32.076 28.6109 31.224 27.9869 30.12V39.48H25.3229V14.28ZM39.6869 23.388C39.6869 20.796 39.0629 18.852 37.8149 17.556C36.8069 16.524 35.4749 16.008 33.8189 16.008C31.9949 16.008 30.5309 16.692 29.4269 18.06C28.3469 19.38 27.8069 21.204 27.8069 23.532C27.8069 26.148 28.4429 28.152 29.7149 29.544C30.7469 30.696 32.1029 31.272 33.7829 31.272C35.7029 31.272 37.1789 30.54 38.2109 29.076C39.1949 27.708 39.6869 25.812 39.6869 23.388Z" fill="white"></path>
    <path d="M77.296 16.584H73.084V28.86C73.084 30.42 73.828 31.2 75.316 31.2C76.012 31.2 76.744 31.104 77.512 30.912V33.18C76.648 33.42 75.82 33.54 75.028 33.54C73.444 33.54 72.256 33.06 71.464 32.1C70.768 31.284 70.42 30.18 70.42 28.788V16.584H67.684V14.28H70.42L70.6 9.78H73.084V14.28H77.296V16.584ZM82.4628 7.08V33H79.7988V7.08H82.4628ZM89.2913 33H86.5913V14.28H89.2913V33ZM89.4713 10.428H86.4113V7.08H89.4713V10.428ZM93.172 34.512H96.016C96.256 35.664 96.88 36.54 97.888 37.14C98.752 37.644 99.856 37.896 101.2 37.896C103.096 37.896 104.548 37.368 105.556 36.312C106.396 35.376 106.816 34.152 106.816 32.64V29.364C105.448 31.38 103.324 32.388 100.444 32.388C98.02 32.388 96.04 31.488 94.504 29.688C93.064 28.032 92.344 25.872 92.344 23.208C92.344 20.064 93.22 17.64 94.972 15.936C96.436 14.472 98.308 13.74 100.588 13.74C103.444 13.74 105.544 14.88 106.888 17.16L107.32 14.28H109.516V32.748C109.516 35.028 108.7 36.84 107.068 38.184C105.58 39.408 103.648 40.02 101.272 40.02C98.824 40.02 96.88 39.468 95.44 38.364C94.24 37.404 93.484 36.12 93.172 34.512ZM95.116 23.244C95.116 25.524 95.764 27.3 97.06 28.572C98.116 29.604 99.436 30.12 101.02 30.12C102.94 30.12 104.428 29.484 105.484 28.212C106.492 27.012 106.996 25.356 106.996 23.244C106.996 20.748 106.36 18.864 105.088 17.592C104.032 16.536 102.664 16.008 100.984 16.008C99.112 16.008 97.648 16.68 96.592 18.024C95.608 19.296 95.116 21.036 95.116 23.244ZM116.383 33H113.719V7.08H116.383V16.908C117.007 15.9 117.823 15.12 118.831 14.568C119.863 14.016 120.979 13.74 122.179 13.74C124.339 13.74 126.007 14.412 127.183 15.756C128.215 16.932 128.731 18.516 128.731 20.508V33H126.067V20.58C126.067 18.996 125.623 17.808 124.735 17.016C123.967 16.344 122.911 16.008 121.567 16.008C120.055 16.008 118.795 16.56 117.787 17.664C116.851 18.696 116.383 19.98 116.383 21.516V33ZM140.416 16.584H136.204V28.86C136.204 30.42 136.948 31.2 138.436 31.2C139.132 31.2 139.864 31.104 140.632 30.912V33.18C139.768 33.42 138.94 33.54 138.148 33.54C136.564 33.54 135.376 33.06 134.584 32.1C133.888 31.284 133.54 30.18 133.54 28.788V16.584H130.804V14.28H133.54L133.72 9.78H136.204V14.28H140.416V16.584Z" fill="white"></path>
    <circle cx="55.5" cy="23.5" r="9.5" fill="white"></circle>
    <path fill-rule="evenodd" clip-rule="evenodd" d="M65.6918 34C62.9345 36.478 59.2386 38 55.1536 38C51.0686 38 47.3727 36.478 44.6153 34H41.8104C45.0204 37.6708 49.807 40 55.1536 40C60.5002 40 65.2868 37.6708 68.4968 34H65.6918ZM43.6013 13C46.4306 9.9377 50.5444 8 55.1536 8C59.7628 8 63.8766 9.9377 66.7058 13H69.3072C66.1252 8.75733 60.9709 6 55.1536 6C49.3363 6 44.182 8.75733 41 13H43.6013Z" fill="white"></path>
  </svg>